<svg width="278" height="278" viewBox="0 0 278 278" fill="none" xmlns="http://www.w3.org/2000/svg">
<circle cx="139" cy="139" r="139" fill="black"/>
<path d="M139.083 152.125L144.792 141.708V114.927C154.616 112.599 161.917 104.51 161.917 94.8333C161.917 83.3437 151.676 74 139.083 74C126.491 74 116.25 83.3437 116.25 94.8333C116.25 104.51 123.551 112.599 133.375 114.927V141.708L139.083 152.125ZM127.667 94.8333C127.667 89.0885 132.787 84.4167 139.083 84.4167C145.38 84.4167 150.5 89.0885 150.5 94.8333C150.5 100.578 145.38 105.25 139.083 105.25C132.787 105.25 127.667 100.578 127.667 94.8333Z" fill="white"/>
<path d="M163.441 118.599L160.398 128.641C175.189 132.37 184.75 139.542 184.75 146.917C184.75 156.771 165.998 167.75 139.083 167.75C112.169 167.75 93.4167 156.771 93.4167 146.917C93.4167 139.542 102.978 132.37 117.774 128.635L114.732 118.594C94.5412 123.687 82 134.536 82 146.917C82 164.437 107.077 178.167 139.083 178.167C171.09 178.167 196.167 164.437 196.167 146.917C196.167 134.536 183.625 123.687 163.441 118.599Z" fill="white"/>
<path d="M74.5931 68.4235C93.5931 74.4235 90.5931 47.4235 108.593 42.4235C126.593 37.4235 125.727 62.349 139.593 60.4235C150.89 58.8548 121.593 26.4235 162.593 42.4235C203.593 58.4235 183.593 47.4235 189.593 60.4235C195.593 73.4235 251.593 83.4235 232.593 97.4235C213.593 111.424 205.593 128.424 232.593 135.424C259.593 142.424 232.593 180.424 232.593 180.424C232.593 180.424 239.593 215.424 212.593 221.424C185.593 227.424 207.593 193.424 189.593 209.424C171.593 225.424 189.593 247.424 162.593 238.424C135.593 229.424 176.412 187.424 139.593 209.424C102.774 231.424 139.593 238.424 108.593 238.424C77.5931 238.424 145.593 216.989 74.5931 209.424C3.59311 201.858 91.5931 201.424 56.5931 180.424C21.5931 159.424 50.5931 205.424 28.5931 142.424C6.59312 79.4235 56.5931 97.4235 56.5931 97.4235C56.5931 97.4235 55.5931 62.4235 74.5931 68.4235Z" stroke="white" stroke-width="5"/>
</svg>
